<svg xmlns="http://www.w3.org/2000/svg" version="1.1" xmlns:xlink="http://www.w3.org/1999/xlink" xmlns:svgjs="http://svgjs.dev/svgjs" viewBox="0 0 800 800"><defs><filter id="bbburst-blur-1" x="-100%" y="-100%" width="400%" height="400%"><feGaussianBlur in="SourceGraphic" stdDeviation="1"></feGaussianBlur></filter><filter id="bbburst-blur-2" x="-100%" y="-100%" width="400%" height="400%"><feGaussianBlur in="SourceGraphic" stdDeviation="2"></feGaussianBlur></filter><filter id="bbburst-blur-3" x="-100%" y="-100%" width="400%" height="400%"><feGaussianBlur in="SourceGraphic" stdDeviation="4"></feGaussianBlur></filter><filter id="bbburst-blur-4" x="-100%" y="-100%" width="400%" height="400%"><feGaussianBlur in="SourceGraphic" stdDeviation="12"></feGaussianBlur></filter><symbol id="bbburst-shape-1" viewBox="0 0 194 167"><path d="m97 0 96.129 166.5H.871L97 0Z"></path></symbol><symbol id="bbburst-shape-10" viewBox="0 0 145 145"><circle cx="72.5" cy="72.5" r="61.5" fill="none" stroke-width="22"></circle></symbol></defs><use xlink:href="#bbburst-shape-10" width="20.193965155401113" opacity="0.6942181161788987" transform="matrix(0.981805366165396,0.1898900286187575,-0.1898900286187575,0.981805366165396,532.1246174230982,126.05623320474399)" fill="none" stroke="#e0ffff" filter="url(#bbburst-blur-1)"></use><use xlink:href="#bbburst-shape-10" width="41.77943390636675" opacity="0.4367712389866446" transform="matrix(0.9180928138343967,-0.3963654692145115,0.3963654692145115,0.9180928138343967,131.75217339411347,-195.69328569805356)" fill="none" stroke="#e0ffff" filter="url(#bbburst-blur-2)"></use><use xlink:href="#bbburst-shape-1" width="24.544123267693116" opacity="0.7741121894556457" transform="matrix(0.9372495132221481,-0.3486593609310474,0.3486593609310474,0.9372495132221481,152.1913942128252,-1.4449607968336409)" fill="#ffffff" filter="url(#bbburst-blur-1)"></use><use xlink:href="#bbburst-shape-10" width="30.105051483039837" opacity="0.5140721729962887" transform="matrix(0.8957792938849332,0.44449910758854244,-0.44449910758854244,0.8957792938849332,349.316659802708,-4.88765767388719)" fill="none" stroke="#ffffff" filter="url(#bbburst-blur-2)"></use><use xlink:href="#bbburst-shape-10" width="23.53542846524322" opacity="0.6607504694347" transform="matrix(0.978510154956252,-0.2061986339612649,0.2061986339612649,0.978510154956252,251.36511954382152,153.57128291925926)" fill="none" stroke="#ffffff" filter="url(#bbburst-blur-1)"></use><use xlink:href="#bbburst-shape-1" width="35.12628030789686" opacity="0.570915714167225" transform="matrix(0.9965230215613077,0.08331787022194893,-0.08331787022194893,0.9965230215613077,387.8148148225775,-191.07344679625882)" fill="#ffffff" filter="url(#bbburst-blur-1)"></use><use xlink:href="#bbburst-shape-1" width="33.80768984225473" opacity="0.35786072633387367" transform="matrix(0.9974259508308951,-0.0717040627097576,0.0717040627097576,0.9974259508308951,639.7164859053896,-43.85405165928239)" fill="#ffffff" filter="url(#bbburst-blur-2)"></use><use xlink:href="#bbburst-shape-10" width="13.257271890452449" opacity="0.7735191649015456" transform="matrix(0.9408037936720469,0.3389516511425849,-0.3389516511425849,0.9408037936720469,551.7178679971257,-77.99856459006287)" fill="none" stroke="#e0ffff" filter="url(#bbburst-blur-1)"></use><use xlink:href="#bbburst-shape-10" width="21.765157063122864" opacity="0.6349768011909895" transform="matrix(0.7238168829787022,-0.6899921158353882,0.6899921158353882,0.7238168829787022,247.742169209005,216.26091126368863)" fill="none" stroke="#ffffff" filter="url(#bbburst-blur-1)"></use><use xlink:href="#bbburst-shape-10" width="25.405514186949034" opacity="0.5554674242258195" transform="matrix(0.9417591173423866,-0.3362882170140502,0.3362882170140502,0.9417591173423866,254.76663869452383,227.6039239417957)" fill="none" stroke="#ffffff" filter="url(#bbburst-blur-2)"></use><use xlink:href="#bbburst-shape-1" width="34.429661614994956" opacity="0.572529888417188" transform="matrix(0.8018015251985858,0.5975904234416927,-0.5975904234416927,0.8018015251985858,514.0124392311054,-87.93993821616814)" fill="#ffffff" filter="url(#bbburst-blur-1)"></use><use xlink:href="#bbburst-shape-10" width="14.243463968180293" opacity="0.8695520224673511" transform="matrix(0.929023581047687,0.37002052085976483,-0.37002052085976483,0.929023581047687,593.1909155767847,53.37316300740133)" fill="none" stroke="#e0ffff"></use><use xlink:href="#bbburst-shape-1" width="30.54560123539469" opacity="0.4678097133214837" transform="matrix(0.9737760968638862,0.22750849033944917,-0.22750849033944917,0.9737760968638862,675.1712028355105,140.21792123858165)" fill="#e0ffff" filter="url(#bbburst-blur-2)"></use><use xlink:href="#bbburst-shape-1" width="42.7521562528389" opacity="0.25257591664709467" transform="matrix(1.2158002093151703,-0.2903960244720785,0.2903960244720785,1.2158002093151703,-76.02673606264528,-120.53159609072111)" fill="#e0ffff" filter="url(#bbburst-blur-3)"></use><use xlink:href="#bbburst-shape-1" width="36.18143564348401" opacity="0.40069758229598507" transform="matrix(0.9865651431914845,-0.16336835140126058,0.16336835140126058,0.9865651431914845,277.48259324131385,275.1781957150981)" fill="#ffffff" filter="url(#bbburst-blur-2)"></use><use xlink:href="#bbburst-shape-1" width="28.529461296640125" opacity="0.3193757002472768" transform="matrix(1.0478111578438698,-0.6816096958655217,0.6816096958655217,1.0478111578438698,-125.20526177579279,183.86074009866047)" fill="#e0ffff" filter="url(#bbburst-blur-3)"></use><use xlink:href="#bbburst-shape-1" width="48.231477296607544" opacity="0.0829127014190385" transform="matrix(1.5788086337053624,-0.7548929050782016,0.7548929050782016,1.5788086337053624,-293.68861855577575,-0.6040383150007074)" fill="#ffffff" filter="url(#bbburst-blur-4)"></use><use xlink:href="#bbburst-shape-10" width="12.443673143470585" opacity="0.9015764662172663" transform="matrix(0.876309885636901,-0.48174784310367325,0.48174784310367325,0.876309885636901,167.15673849223543,80.00759662867506)" fill="none" stroke="#ffffff"></use><use xlink:href="#bbburst-shape-1" width="35.57616716512465" opacity="-0.09671833188129164" transform="matrix(1.7331519961849233,0.2422481333678655,-0.2422481333678655,1.7331519961849233,817.0366924009052,49.467202180141044)" fill="#e0ffff" filter="url(#bbburst-blur-4)"></use><use xlink:href="#bbburst-shape-10" width="35.58613340252617" opacity="0.04310493688749695" transform="matrix(1.7162091807601012,0.34223683009685335,-0.34223683009685335,1.7162091807601012,754.9340719807194,59.03570075784921)" fill="none" stroke="#ffffff" filter="url(#bbburst-blur-4)"></use><use xlink:href="#bbburst-shape-10" width="21.570843323133563" opacity="0.6914792317749219" transform="matrix(0.886335966043689,0.4630427143335704,-0.4630427143335704,0.886335966043689,588.8281775683679,178.67973013884517)" fill="none" stroke="#ffffff" filter="url(#bbburst-blur-1)"></use><use xlink:href="#bbburst-shape-10" width="17.285851449271952" opacity="0.7767350099003794" transform="matrix(0.8484882718194298,0.5292141840359889,-0.5292141840359889,0.8484882718194298,672.2654077452707,130.07036997488683)" fill="none" stroke="#ffffff" filter="url(#bbburst-blur-1)"></use><use xlink:href="#bbburst-shape-1" width="18.850148352285483" opacity="0.6785365326609656" transform="matrix(0.9905001366032886,0.1375117427308174,-0.1375117427308174,0.9905001366032886,532.4868146562524,-113.17951590111772)" fill="#ffffff" filter="url(#bbburst-blur-1)"></use><use xlink:href="#bbburst-shape-10" width="38.56643413813173" opacity="0.37906556150042614" transform="matrix(0.8465080860607184,-0.532375863684502,0.532375863684502,0.8465080860607184,161.0578420930517,-207.59050014559227)" fill="none" stroke="#ffffff" filter="url(#bbburst-blur-2)"></use><use xlink:href="#bbburst-shape-10" width="41.06691945887411" opacity="0.07045582985544685" transform="matrix(1.575829435875278,-0.7610923656357377,0.7610923656357377,1.575829435875278,399.44578628280595,34.119917027525844)" fill="none" stroke="#ffffff" filter="url(#bbburst-blur-4)"></use><use xlink:href="#bbburst-shape-10" width="25.495669757536998" opacity="0.4870627886343293" transform="matrix(0.8074092520969586,-0.5899917792886864,0.5899917792886864,0.8074092520969586,204.4123941358438,-140.62694620515165)" fill="none" stroke="#ffffff" filter="url(#bbburst-blur-2)"></use><use xlink:href="#bbburst-shape-10" width="44.05665781833885" opacity="0.2222423321505671" transform="matrix(1.2256014326632922,-0.24576640993774052,0.24576640993774052,1.2256014326632922,169.89615818553528,-418.75903143004757)" fill="none" stroke="#e0ffff" filter="url(#bbburst-blur-3)"></use><use xlink:href="#bbburst-shape-1" width="47.6088361268244" opacity="0.0473098187095391" transform="matrix(1.5001687361483091,-0.9011069653948884,0.9011069653948884,1.5001687361483091,355.3232097896609,-424.077204449194)" fill="#ffffff" filter="url(#bbburst-blur-4)"></use><use xlink:href="#bbburst-shape-10" width="31.316117044100146" opacity="0.4608350687040713" transform="matrix(0.994181228342782,0.10772040294594656,-0.10772040294594656,0.994181228342782,212.20673987013848,112.47187499905948)" fill="none" stroke="#ffffff" filter="url(#bbburst-blur-2)"></use><use xlink:href="#bbburst-shape-1" width="17.043990142671355" opacity="0.8303485701895955" transform="matrix(0.8293993216456498,0.5586562138325644,-0.5586562138325644,0.8293993216456498,575.1024533349182,127.71807969358525)" fill="#ffffff"></use><use xlink:href="#bbburst-shape-10" width="28.38496004308667" opacity="0.28607391921516023" transform="matrix(0.9491147566520951,0.8134378763650206,-0.8134378763650206,0.9491147566520951,957.3216744142167,216.13254121283217)" fill="none" stroke="#e0ffff" filter="url(#bbburst-blur-3)"></use><use xlink:href="#bbburst-shape-1" width="39.87412280458158" opacity="0.18925336728774478" transform="matrix(1.2406598434814595,0.15252263036205482,-0.15252263036205482,1.2406598434814595,74.28008837531291,-53.72832217671379)" fill="#ffffff" filter="url(#bbburst-blur-3)"></use><use xlink:href="#bbburst-shape-10" width="21.872543357984622" opacity="0.5456913834407362" transform="matrix(0.8998189042790943,0.43626361239733263,-0.43626361239733263,0.8998189042790943,664.6361987879038,-143.0269259133812)" fill="none" stroke="#ffffff" filter="url(#bbburst-blur-2)"></use><use xlink:href="#bbburst-shape-1" width="43.34982384103884" opacity="0.20007158058670726" transform="matrix(1.2026160723705777,0.3409025996908288,-0.3409025996908288,1.2026160723705777,216.80734804650194,-296.82284078867144)" fill="#e0ffff" filter="url(#bbburst-blur-3)"></use><use xlink:href="#bbburst-shape-10" width="42.799948004995805" opacity="0.360201194112599" transform="matrix(0.983193654155347,-0.18256570989278317,0.18256570989278317,0.983193654155347,38.27700496930646,-95.44554970744389)" fill="none" stroke="#e0ffff" filter="url(#bbburst-blur-2)"></use><use xlink:href="#bbburst-shape-10" width="36.56570562335207" opacity="0.19263421866919028" transform="matrix(1.0150585233664455,0.7294903660372294,-0.7294903660372294,1.0150585233664455,677.206264670148,-382.6535024633953)" fill="none" stroke="#e0ffff" filter="url(#bbburst-blur-3)"></use><use xlink:href="#bbburst-shape-1" width="40.34628622127856" opacity="0.2035841014109968" transform="matrix(1.2379260223186908,0.17331809849587018,-0.17331809849587018,1.2379260223186908,800.6534908707371,-60.05543121145854)" fill="#e0ffff" filter="url(#bbburst-blur-3)"></use><use xlink:href="#bbburst-shape-1" width="15.10879270094189" opacity="0.9227625326711908" transform="matrix(0.9998093113171348,0.019527954413012864,-0.019527954413012864,0.9998093113171348,386.9378940302128,-32.155024681817395)" fill="#ffffff"></use><use xlink:href="#bbburst-shape-1" width="12.817338837408034" opacity="0.8563770139169004" transform="matrix(0.7908215635264975,-0.6120467748967442,0.6120467748967442,0.7908215635264975,184.0233681529012,142.63287719438745)" fill="#e0ffff"></use><use xlink:href="#bbburst-shape-10" width="37.66122277366772" opacity="0.12185708152793318" transform="matrix(0.9143448137961195,0.8523341841579155,-0.8523341841579155,0.9143448137961195,360.2074168830405,-136.7599426007595)" fill="none" stroke="#ffffff" filter="url(#bbburst-blur-3)"></use><use xlink:href="#bbburst-shape-1" width="29.17457546237512" opacity="0.07700206337340809" transform="matrix(1.6750578985518332,0.5066369869039535,-0.5066369869039535,1.6750578985518332,374.7190122022441,-639.4416034927256)" fill="#ffffff" filter="url(#bbburst-blur-4)"></use><use xlink:href="#bbburst-shape-1" width="27.255254179061694" opacity="0.12837978944613815" transform="matrix(1.2134770537331614,-0.29995573017211385,0.29995573017211385,1.2134770537331614,626.1538199866026,68.1370655531179)" fill="#e0ffff" filter="url(#bbburst-blur-3)"></use><use xlink:href="#bbburst-shape-10" width="14.091433985430534" opacity="0.7942742429719237" transform="matrix(0.9698186824291053,0.2438272405033414,-0.2438272405033414,0.9698186824291053,541.9116720041567,-66.76589054590647)" fill="none" stroke="#ffffff"></use><use xlink:href="#bbburst-shape-1" width="31.933535183084757" opacity="0.17910485197719195" transform="matrix(1.2499470672082391,-0.011503441985844267,0.011503441985844267,1.2499470672082391,712.889333637884,-250.03477719726428)" fill="#e0ffff" filter="url(#bbburst-blur-3)"></use><use xlink:href="#bbburst-shape-10" width="27.531407488364703" opacity="0.5246636105752347" transform="matrix(0.9879742746704602,-0.1546183449315703,0.1546183449315703,0.9879742746704602,525.6949627599329,-65.83153224090256)" fill="none" stroke="#ffffff" filter="url(#bbburst-blur-2)"></use><use xlink:href="#bbburst-shape-1" width="16.39418696923705" opacity="0.7463615271486523" transform="matrix(0.8319077634950927,0.554913932999157,-0.554913932999157,0.8319077634950927,715.6391376953036,116.79984817893887)" fill="#ffffff" filter="url(#bbburst-blur-1)"></use><use xlink:href="#bbburst-shape-10" width="51.67992058385758" opacity="-0.07620520088169891" transform="matrix(1.554730109079975,0.803314563493137,-0.803314563493137,1.554730109079975,339.1353386104453,100.22626701621607)" fill="none" stroke="#ffffff" filter="url(#bbburst-blur-4)"></use><use xlink:href="#bbburst-shape-10" width="32.98587653284547" opacity="0.4393468169272161" transform="matrix(0.9971238338743783,-0.07578957658980005,0.07578957658980005,0.9971238338743783,103.16104423182696,35.7683614436267)" fill="none" stroke="#ffffff" filter="url(#bbburst-blur-2)"></use><use xlink:href="#bbburst-shape-10" width="16.014851978974605" opacity="0.7069097882528098" transform="matrix(0.999883181719928,-0.015284728117751804,0.015284728117751804,0.999883181719928,327.6238730735946,-118.15839282191263)" fill="none" stroke="#e0ffff" filter="url(#bbburst-blur-1)"></use><use xlink:href="#bbburst-shape-1" width="14.321729636367746" opacity="0.7975953167934557" transform="matrix(0.9975248984627454,0.07031413049230911,-0.07031413049230911,0.9975248984627454,440.3613372499321,89.50136282938615)" fill="#ffffff"></use><use xlink:href="#bbburst-shape-1" width="16.528853420865513" opacity="0.8231281738129758" transform="matrix(0.9515963561299025,0.3073505734504034,-0.3073505734504034,0.9515963561299025,496.8271396498526,-60.63198154753394)" fill="#e0ffff"></use><use xlink:href="#bbburst-shape-1" width="38.421755387336674" opacity="0.3889189177624174" transform="matrix(0.959420939148502,0.2819777677821541,-0.2819777677821541,0.959420939148502,765.3190082139046,57.6711736206513)" fill="#e0ffff" filter="url(#bbburst-blur-2)"></use><use xlink:href="#bbburst-shape-1" width="26.485150006851175" opacity="0.5974844198017345" transform="matrix(0.7943953024857113,0.6074011058506852,-0.6074011058506852,0.7943953024857113,500.82259652524647,198.68814361532372)" fill="#ffffff" filter="url(#bbburst-blur-1)"></use><use xlink:href="#bbburst-shape-1" width="34.04390328735075" opacity="0.3010048771099184" transform="matrix(1.0404801262535577,-0.6927489493830942,0.6927489493830942,1.0404801262535577,194.99171281049598,-305.8197688644264)" fill="#e0ffff" filter="url(#bbburst-blur-3)"></use><use xlink:href="#bbburst-shape-10" width="33.81349853610928" opacity="0.19128601160434378" transform="matrix(0.8945617836780624,-0.8730745759571307,0.8730745759571307,0.8945617836780624,-51.664502597816295,410.2286218801077)" fill="none" stroke="#ffffff" filter="url(#bbburst-blur-3)"></use><use xlink:href="#bbburst-shape-1" width="26.26430580909041" opacity="0.5471364118519279" transform="matrix(0.9985168030876187,0.054444411574391706,-0.054444411574391706,0.9985168030876187,473.3424301309271,193.1642750952405)" fill="#e0ffff" filter="url(#bbburst-blur-2)"></use><use xlink:href="#bbburst-shape-10" width="37.368631819183875" opacity="0.46305849578169556" transform="matrix(0.862600835800878,-0.5058851629328802,0.5058851629328802,0.862600835800878,29.224034513350688,251.98908445865595)" fill="none" stroke="#ffffff" filter="url(#bbburst-blur-2)"></use><use xlink:href="#bbburst-shape-10" width="35.44612618309139" opacity="0.24668327345687135" transform="matrix(1.1253527411291881,-0.5441334468979299,0.5441334468979299,1.1253527411291881,-155.14558600510225,78.15968684561233)" fill="none" stroke="#ffffff" filter="url(#bbburst-blur-3)"></use><use xlink:href="#bbburst-shape-10" width="20.90290452406515" opacity="0.5769241170736268" transform="matrix(0.8906757591714639,-0.4546390788574343,0.4546390788574343,0.8906757591714639,327.03989648690015,197.72558937055686)" fill="none" stroke="#ffffff" filter="url(#bbburst-blur-1)"></use><use xlink:href="#bbburst-shape-10" width="36.1184820815266" opacity="0.17852282255705665" transform="matrix(1.0697806405462564,-0.6465828493800629,0.6465828493800629,1.0697806405462564,485.77287476566846,-82.23401271051785)" fill="none" stroke="#ffffff" filter="url(#bbburst-blur-3)"></use><use xlink:href="#bbburst-shape-10" width="17.22356423820297" opacity="0.6864851425731853" transform="matrix(0.9647872144527767,-0.26303161564430216,0.26303161564430216,0.9647872144527767,427.1551700073666,27.036760964861116)" fill="none" stroke="#e0ffff" filter="url(#bbburst-blur-1)"></use><use xlink:href="#bbburst-shape-10" width="42.64771896878602" opacity="0.36013822079269786" transform="matrix(0.8037171105246206,0.595011601777608,-0.595011601777608,0.8037171105246206,781.847886863706,-172.9070695391342)" fill="none" stroke="#ffffff" filter="url(#bbburst-blur-2)"></use><use xlink:href="#bbburst-shape-1" width="23.454260692603132" opacity="0.7071235694670608" transform="matrix(0.9900187645187173,0.1409356090590047,-0.1409356090590047,0.9900187645187173,430.127751420805,-128.60998057825202)" fill="#ffffff" filter="url(#bbburst-blur-1)"></use><use xlink:href="#bbburst-shape-1" width="33.74948300856627" opacity="0.43108460374604407" transform="matrix(0.830206262029525,0.5574563323588347,-0.5574563323588347,0.830206262029525,761.1498525630817,264.40326094168506)" fill="#ffffff" filter="url(#bbburst-blur-2)"></use><use xlink:href="#bbburst-shape-1" width="28.77554861814013" opacity="0.13553762220759058" transform="matrix(1.2444859231453618,-0.11728080445254709,0.11728080445254709,1.2444859231453618,478.3345145670285,-457.7733580232566)" fill="#e0ffff" filter="url(#bbburst-blur-3)"></use><use xlink:href="#bbburst-shape-1" width="33.09126425888878" opacity="0.3024676945556508" transform="matrix(1.0727718439865284,-0.6416078013473212,0.6416078013473212,1.0727718439865284,411.9503004012057,110.19934368947156)" fill="#ffffff" filter="url(#bbburst-blur-3)"></use><use xlink:href="#bbburst-shape-10" width="38.2380147186857" opacity="-0.06168187659857738" transform="matrix(1.5621426852171938,-0.7888030368998432,0.7888030368998432,1.5621426852171938,-290.93798511713885,-539.6951600348594)" fill="none" stroke="#ffffff" filter="url(#bbburst-blur-4)"></use><use xlink:href="#bbburst-shape-1" width="16.88396013832818" opacity="0.7534475046612201" transform="matrix(0.716458194497321,-0.6976300276920704,0.6976300276920704,0.716458194497321,6.246161685864706,141.6984302452596)" fill="#ffffff" filter="url(#bbburst-blur-1)"></use><use xlink:href="#bbburst-shape-10" width="18.90050188228765" opacity="0.8828992831395424" transform="matrix(0.9604066149380619,-0.2786021069252948,0.2786021069252948,0.9604066149380619,275.1991711684228,70.9911161706176)" fill="none" stroke="#e0ffff"></use><use xlink:href="#bbburst-shape-10" width="17.595092469470416" opacity="0.8262306295131125" transform="matrix(0.954950306826131,0.2967657518863627,-0.2967657518863627,0.954950306826131,456.376804668794,-41.2159261599644)" fill="none" stroke="#ffffff"></use><use xlink:href="#bbburst-shape-10" width="40.041720604169186" opacity="0.38747665674326826" transform="matrix(0.7863437044601794,-0.6177892670286868,0.6177892670286868,0.7863437044601794,378.50851548870855,-35.27278378190783)" fill="none" stroke="#ffffff" filter="url(#bbburst-blur-2)"></use><use xlink:href="#bbburst-shape-10" width="26.472491356192066" opacity="0.6226605358914066" transform="matrix(0.7103297908898552,-0.7038690135063304,0.7038690135063304,0.7103297908898552,-49.681945481626144,185.49265964270592)" fill="none" stroke="#ffffff" filter="url(#bbburst-blur-1)"></use><use xlink:href="#bbburst-shape-10" width="13.202863891021751" opacity="0.9354499859836028" transform="matrix(0.9405703126896252,0.3395990089604806,-0.3395990089604806,0.9405703126896252,546.8634367842839,44.913413667620205)" fill="none" stroke="#e0ffff"></use><use xlink:href="#bbburst-shape-1" width="43.652878307079355" opacity="0.0933351694539466" transform="matrix(1.7497125003877532,-0.03172011959050895,0.03172011959050895,1.7497125003877532,587.7591143223452,-630.0269613353354)" fill="#e0ffff" filter="url(#bbburst-blur-4)"></use><use xlink:href="#bbburst-shape-1" width="13.876358314969554" opacity="0.8713807113055168" transform="matrix(0.8773816359181886,-0.4797931480893855,0.4797931480893855,0.8773816359181886,259.5275174440256,45.99101732379802)" fill="#e0ffff"></use><use xlink:href="#bbburst-shape-10" width="32.25366236491686" opacity="0.15735298783394824" transform="matrix(1.2499414040559746,0.01210315771106528,-0.01210315771106528,1.2499414040559746,125.24445177610735,176.37343342017311)" fill="none" stroke="#e0ffff" filter="url(#bbburst-blur-3)"></use><use xlink:href="#bbburst-shape-10" width="28.90458837257512" opacity="0.3739635278396365" transform="matrix(0.8586935776016003,0.5124893557780146,-0.5124893557780146,0.8586935776016003,689.6994745861184,313.5644791492796)" fill="none" stroke="#e0ffff" filter="url(#bbburst-blur-2)"></use><use xlink:href="#bbburst-shape-10" width="13.35421490166028" opacity="0.9481541822497789" transform="matrix(0.8514574531841066,0.52442368884065,-0.52442368884065,0.8514574531841066,624.7257438352069,45.041347685291385)" fill="none" stroke="#e0ffff"></use><use xlink:href="#bbburst-shape-1" width="13.0886790904798" opacity="0.851007632909332" transform="matrix(0.7955707536351492,-0.6058606902254022,0.6058606902254022,0.7955707536351492,85.83226563851267,93.23737969002866)" fill="#ffffff"></use><use xlink:href="#bbburst-shape-10" width="37.12384300952861" opacity="0.15760118932935008" transform="matrix(1.2189107881242787,0.2770496175674134,-0.2770496175674134,1.2189107881242787,619.607539276971,262.8657068910371)" fill="none" stroke="#e0ffff" filter="url(#bbburst-blur-3)"></use><use xlink:href="#bbburst-shape-10" width="35.07577808709952" opacity="0.08235282088271101" transform="matrix(1.4231678604196798,1.018377749692358,-1.018377749692358,1.4231678604196798,575.7712618512695,170.40368835131574)" fill="none" stroke="#ffffff" filter="url(#bbburst-blur-4)"></use><use xlink:href="#bbburst-shape-1" width="12.279457479828938" opacity="0.8812299561367061" transform="matrix(0.7582676552262336,-0.6519433741036944,0.6519433741036944,0.7582676552262336,150.00347830912386,49.53577647059012)" fill="#e0ffff"></use><use xlink:href="#bbburst-shape-1" width="34.589478622660536" opacity="0.15533385004772915" transform="matrix(0.9975323023328093,-0.7532790358178068,0.7532790358178068,0.9975323023328093,-164.29725011336873,-275.8964546248496)" fill="#e0ffff" filter="url(#bbburst-blur-3)"></use><use xlink:href="#bbburst-shape-1" width="17.035369219070525" opacity="0.7650447051786267" transform="matrix(0.7951438271148514,-0.6064208886583207,0.6064208886583207,0.7951438271148514,237.86268522046558,27.320382322201624)" fill="#e0ffff" filter="url(#bbburst-blur-1)"></use><use xlink:href="#bbburst-shape-10" width="24.467469492757726" opacity="0.6359501575886533" transform="matrix(0.9978803903548331,-0.06507477656731518,0.06507477656731518,0.9978803903548331,214.03743761289778,-69.1738574158968)" fill="none" stroke="#e0ffff" filter="url(#bbburst-blur-1)"></use><use xlink:href="#bbburst-shape-10" width="17.432996435759286" opacity="0.7179538916582229" transform="matrix(0.8834882888938393,-0.468453245679263,0.468453245679263,0.8834882888938393,117.307018834015,142.52058601176645)" fill="none" stroke="#e0ffff" filter="url(#bbburst-blur-1)"></use><use xlink:href="#bbburst-shape-10" width="29.666015165427947" opacity="0.5257830543173883" transform="matrix(0.8571891192920383,-0.5150017609361541,0.5150017609361541,0.8571891192920383,394.6318514259158,60.126462576724634)" fill="none" stroke="#ffffff" filter="url(#bbburst-blur-2)"></use><use xlink:href="#bbburst-shape-1" width="31.631451330505854" opacity="0.18327746581111892" transform="matrix(1.2359731657494464,0.1867359996018208,-0.1867359996018208,1.2359731657494464,473.6121703774355,269.7683352739236)" fill="#ffffff" filter="url(#bbburst-blur-3)"></use><use xlink:href="#bbburst-shape-10" width="11.788464562292923" opacity="0.9742834064960542" transform="matrix(0.8666887713163666,0.4988492494472922,-0.4988492494472922,0.8666887713163666,584.5073385734391,56.3371800684144)" fill="none" stroke="#e0ffff"></use><use xlink:href="#bbburst-shape-1" width="12.079027593616145" opacity="0.8014822738168592" transform="matrix(0.9988702472371442,0.047520828953273364,-0.047520828953273364,0.9988702472371442,500.5687914144,17.721639311332524)" fill="#ffffff"></use><use xlink:href="#bbburst-shape-1" width="19.77765762561493" opacity="0.653507076978596" transform="matrix(0.79455379508656,-0.6071937637307756,0.6071937637307756,0.79455379508656,296.69914134250325,138.9912922648051)" fill="#ffffff" filter="url(#bbburst-blur-1)"></use><use xlink:href="#bbburst-shape-10" width="45.81585062323642" opacity="0.25152679741845974" transform="matrix(1.150391648186395,0.48897756163548994,-0.48897756163548994,1.150391648186395,821.6208476713646,-294.39582122957336)" fill="none" stroke="#e0ffff" filter="url(#bbburst-blur-3)"></use><use xlink:href="#bbburst-shape-1" width="30.9358216635305" opacity="0.33341870613252367" transform="matrix(0.9889937280252974,0.14795744633719554,-0.14795744633719554,0.9889937280252974,475.5844796680236,300.43466065382756)" fill="#ffffff" filter="url(#bbburst-blur-2)"></use><use xlink:href="#bbburst-shape-1" width="33.76765001580805" opacity="0.23685008151072884" transform="matrix(1.0621357287028985,-0.6590657735103249,0.6590657735103249,1.0621357287028985,317.1500069239345,266.4294465522833)" fill="#ffffff" filter="url(#bbburst-blur-3)"></use><use xlink:href="#bbburst-shape-10" width="15.865987579580572" opacity="0.7700434658192749" transform="matrix(0.9961385762561276,-0.08779485687906244,0.08779485687906244,0.9961385762561276,330.48981641407624,102.27348158271377)" fill="none" stroke="#e0ffff" filter="url(#bbburst-blur-1)"></use><use xlink:href="#bbburst-shape-1" width="18.211906731552983" opacity="0.7905579565613541" transform="matrix(0.9718838991902908,0.2354605837389279,-0.2354605837389279,0.9718838991902908,405.62163942537205,59.42058681825745)" fill="#ffffff"></use><use xlink:href="#bbburst-shape-10" width="25.293571650351502" opacity="0.6508689224117896" transform="matrix(0.8457391086532825,0.5335966267644046,-0.5335966267644046,0.8457391086532825,736.0720722242665,-28.14945041663401)" fill="none" stroke="#e0ffff" filter="url(#bbburst-blur-1)"></use><use xlink:href="#bbburst-shape-1" width="21.62550081821871" opacity="0.7068274193436499" transform="matrix(0.8914218946996799,-0.4531743656144208,0.4531743656144208,0.8914218946996799,111.32162038833579,-40.20727935052497)" fill="#ffffff" filter="url(#bbburst-blur-1)"></use><use xlink:href="#bbburst-shape-10" width="14.288910122131218" opacity="0.8622759467153785" transform="matrix(0.818491313125867,0.5745189033769855,-0.5745189033769855,0.818491313125867,673.8006910209446,31.662764844578874)" fill="none" stroke="#ffffff"></use><use xlink:href="#bbburst-shape-10" width="13.260654057530145" opacity="0.898289821508489" transform="matrix(0.9681394660547293,0.2504116096894545,-0.2504116096894545,0.9681394660547293,450.8739336633791,-4.943573857129479)" fill="none" stroke="#e0ffff"></use><use xlink:href="#bbburst-shape-1" width="28.469104724412567" opacity="0.6500202719498698" transform="matrix(0.9010035600428468,0.43381169277708076,-0.43381169277708076,0.9010035600428468,596.250878525622,-119.96555210980307)" fill="#ffffff" filter="url(#bbburst-blur-1)"></use><use xlink:href="#bbburst-shape-1" width="26.10832912548863" opacity="0.6509419394688791" transform="matrix(0.7132885596285073,0.7008704806903265,-0.7008704806903265,0.7132885596285073,513.9436180393452,104.12924770722111)" fill="#ffffff" filter="url(#bbburst-blur-1)"></use><use xlink:href="#bbburst-shape-10" width="42.315327239780466" opacity="-0.08703717569171321" transform="matrix(1.7266913200408973,0.28467013418239606,-0.28467013418239606,1.7266913200408973,819.283837160693,-646.4927056651645)" fill="none" stroke="#e0ffff" filter="url(#bbburst-blur-4)"></use><use xlink:href="#bbburst-shape-1" width="31.823633129089753" opacity="0.48164010503262833" transform="matrix(0.994169653076559,-0.10782718071819537,0.10782718071819537,0.994169653076559,151.02032589504475,-131.1820078080188)" fill="#ffffff" filter="url(#bbburst-blur-2)"></use><use xlink:href="#bbburst-shape-10" width="16.42364566454803" opacity="0.7720177678531241" transform="matrix(0.9054226766838305,0.42451122075474973,-0.42451122075474973,0.9054226766838305,662.5934373210252,12.430335404290304)" fill="none" stroke="#ffffff" filter="url(#bbburst-blur-1)"></use><use xlink:href="#bbburst-shape-1" width="27.605308471335068" opacity="0.5221924139735363" transform="matrix(0.9522668761115586,0.30526676311176365,-0.30526676311176365,0.9522668761115586,431.15066333933964,215.35742161372332)" fill="#ffffff" filter="url(#bbburst-blur-2)"></use><use xlink:href="#bbburst-shape-1" width="32.34866568800675" opacity="0.3615180964513094" transform="matrix(0.9398282107976299,0.3416473828217126,-0.3416473828217126,0.9398282107976299,342.6669155950156,-206.3399559497814)" fill="#e0ffff" filter="url(#bbburst-blur-2)"></use><use xlink:href="#bbburst-shape-1" width="24.751891639756668" opacity="0.5340542203583314" transform="matrix(0.9994380774300466,-0.033519089828515224,0.033519089828515224,0.9994380774300466,573.7432617446098,65.1392809432179)" fill="#ffffff" filter="url(#bbburst-blur-2)"></use><use xlink:href="#bbburst-shape-10" width="36.54973613596047" opacity="0.3169664420416243" transform="matrix(1.0739835627875807,-0.6395774439910263,0.6395774439910263,1.0739835627875807,-18.255208622533416,254.27525787502782)" fill="none" stroke="#ffffff" filter="url(#bbburst-blur-3)"></use><use xlink:href="#bbburst-shape-10" width="27.80534964105793" opacity="0.5122968432457305" transform="matrix(0.9581457570733946,-0.2862808205281165,0.2862808205281165,0.9581457570733946,435.04204867416564,-126.37412045626459)" fill="none" stroke="#ffffff" filter="url(#bbburst-blur-2)"></use><use xlink:href="#bbburst-shape-1" width="20.594320745054866" opacity="0.6533124168371981" transform="matrix(0.9918800949607793,-0.12717655924184842,0.12717655924184842,0.9918800949607793,491.54511610341325,-27.731339463102927)" fill="#e0ffff" filter="url(#bbburst-blur-1)"></use></svg>