<svg xmlns="http://www.w3.org/2000/svg" version="1.1" xmlns:xlink="http://www.w3.org/1999/xlink" xmlns:svgjs="http://svgjs.dev/svgjs" viewBox="0 0 1422 800"><defs><filter id="uuunion-blur" x="-100%" y="-100%" width="400%" height="400%" color-interpolation-filters="sRGB">
        <feGaussianBlur in="SourceGraphic" stdDeviation="0 0" result="blur"></feGaussianBlur>
        <feDropShadow stdDeviation="23.384615384615387" in="blur" dx="19" dy="19" flood-color="black" flood-opacity="0.25" x="0%" y="0%" width="100%" height="100%"></feDropShadow>
      </filter><filter id="uuunion-blur2" x="-100%" y="-100%" width="400%" height="400%" color-interpolation-filters="sRGB">
        <feGaussianBlur in="SourceGraphic" stdDeviation="0 0" result="blur"></feGaussianBlur>
        <feDropShadow stdDeviation="23.384615384615387" in="blur" dx="-19" dy="-19" flood-color="black" flood-opacity="0.25" x="0%" y="0%" width="100%" height="100%"></feDropShadow>
      </filter><linearGradient gradientTransform="rotate(0, 0.5, 0.5)" x1="50%" y1="0%" x2="50%" y2="100%" id="uuunion-grad"><stop stop-color="#0000FF" offset="10%"></stop><stop stop-color="black" offset="90%"></stop></linearGradient><linearGradient gradientTransform="rotate(125, 0.5, 0.5)" x1="50%" y1="0%" x2="50%" y2="100%" id="uuunion-grad2"><stop stop-color="#0000FF" offset="25%"></stop><stop stop-color="black" offset="100%"></stop></linearGradient><linearGradient gradientTransform="rotate(333, 0.5, 0.5)" x1="50%" y1="0%" x2="50%" y2="100%" id="uuunion-grad3"><stop stop-color="#0000FF" offset="0%"></stop><stop stop-color="black" offset="75%"></stop></linearGradient></defs><path d="M-142.36 -87.02Q-129.02 -85.25 -115.68 -83.23 -102.34 -81.06 -89.01 -78.83 -75.67 -76.67 -62.33 -74.65 -48.99 -72.9 -35.65 -71.48 -22.32 -70.46 -8.98 -69.9 4.35 -69.82 17.69 -70.23 31.02 -71.09 44.36 -72.38 57.7 -74.04 71.04 -75.98 84.38 -78.1 97.71 -80.32 111.05 -82.52 124.39 -84.61 137.73 -86.47 151.07 -88.02 164.4 -89.2 177.74 -89.93 191.08 -90.19 204.42 -89.97 217.76 -89.27 231.09 -88.14 244.43 -86.61 257.77 -84.77 271.11 -82.7 284.45 -80.5 297.78 -78.28 311.12 -76.14 324.46 -74.19 337.8 -72.51 351.14 -71.18 364.47 -70.28 377.81 -69.84 391.15 -69.88 404.49 -70.4 417.82 -71.38 431.16 -72.77 444.5 -74.5 457.84 -76.49 471.18 -78.65 484.51 -80.88 497.85 -83.06 511.19 -85.1 524.53 -86.89 537.87 -88.36 551.2 -89.42 564.54 -90.04 577.88 -90.18 591.22 -89.84 604.56 -89.03 617.89 -87.79 631.23 -86.18 644.57 -84.27 657.91 -82.16 671.25 -79.95 684.58 -77.74 697.92 -75.64 711.26 -73.74 724.6 -72.14 737.94 -70.92 751.27 -70.12 764.61 -69.8 777.95 -69.96 791.29 -70.6 804.63 -71.69 817.96 -73.17 831.3 -74.98 844.64 -77.02 857.98 -79.21 871.32 -81.43 884.65 -83.59 897.99 -85.57 911.33 -87.29 924.67 -88.66 938.01 -89.62 951.34 -90.12 964.68 -90.14 978.02 -89.68 991.36 -88.76 1004.7 -87.42 1018.03 -85.72 1031.37 -83.76 1044.71 -81.61 1058.05 -79.39 1071.39 -77.2 1084.72 -75.14 1098.06 -73.31 1111.4 -71.8 1124.74 -70.68 1138.08 -70 1151.41 -69.8 1164.75 -70.08 1178.09 -70.83 1191.43 -72.02 1204.77 -73.59 1218.1 -75.47 1231.44 -77.56 1244.78 -79.76 1258.12 -81.98 1271.46 -84.1 1284.79 -86.03 1298.13 -87.67 1311.47 -88.94 1324.81 -89.79 1338.15 -90.17 1351.48 -90.07 1364.82 -89.49 1378.16 -88.46 1391.5 -87.03 1404.84 -85.26 1418.17 -83.24 1431.51 -81.06 1444.85 -78.84 1458.19 -76.67 1471.53 -74.66 1484.87 -72.9 1498.2 -71.48 1511.54 -70.46 1524.88 -69.9 1538.22 -69.82 1554.79 -63.17 1553.31 -41.16 1552.4 -26.19 1555.61 -11.22 1561.82 3.73 1568.85 18.7 1574.26 33.67 1576.16 48.64 1573.87 63.6 1568.2 78.57 1561.14 93.54 1555.14 108.5 1552.3 123.47 1553.62 138.44 1558.64 153.41 1565.59 168.37 1572.06 183.34 1575.78 198.31 1575.45 213.28 1571.19 228.24 1564.49 243.21 1557.69 258.18 1553.15 273.14 1552.48 288.11 1555.9 303.08 1562.21 318.05 1569.22 333.01 1574.48 347.98 1576.14 362.95 1573.63 377.92 1567.82 392.88 1560.75 407.85 1554.88 422.82 1552.27 437.78 1553.82 452.75 1559 467.72 1565.99 482.69 1572.36 497.65 1575.87 512.62 1575.31 527.59 1570.86 542.56 1564.09 557.52 1557.35 572.49 1553 587.46 1552.57 602.42 1556.19 617.39 1562.61 632.36 1569.58 647.33 1574.68 662.29 1576.1 677.26 1573.37 692.23 1567.44 707.2 1560.37 722.16 1554.63 737.13 1552.24 752.1 1554.02 767.06 1559.36 782.03 1566.39 797 1572.64 811.97 1575.95 826.93 1575.15 841.9 1570.53 856.87 1563.69 871.84 1557.03 886.8 1543.76 887.47 1530.5 887.77 1517.24 887.71 1503.98 887.28 1490.72 886.51 1477.46 885.42 1464.2 884.08 1450.93 882.54 1437.67 880.88 1424.41 879.18 1411.15 877.52 1397.89 875.97 1384.63 874.62 1371.37 873.52 1358.11 872.73 1344.84 872.29 1331.58 872.21 1318.32 872.5 1305.06 873.15 1291.8 874.13 1278.54 875.38 1265.28 876.86 1252.01 878.48 1238.75 880.17 1225.49 881.86 1212.23 883.46 1198.97 884.89 1185.71 886.09 1172.45 887 1159.19 887.58 1145.92 887.79 1132.66 887.64 1119.4 887.12 1106.14 886.26 1092.88 885.11 1079.62 883.71 1066.36 882.13 1053.09 880.46 1039.83 878.76 1026.57 877.12 1013.31 875.61 1000.05 874.32 986.79 873.29 973.53 872.59 960.27 872.23 947 872.25 933.74 872.63 920.48 873.37 907.22 874.42 893.96 875.73 880.7 877.25 867.44 878.9 854.18 880.6 840.91 882.27 827.65 883.83 814.39 885.21 801.13 886.35 787.87 887.18 774.61 887.67 761.35 887.79 748.09 887.54 734.82 886.94 721.56 886 708.3 884.78 695.04 883.33 681.78 881.72 668.52 880.03 655.26 878.34 641.99 876.73 628.73 875.27 615.47 874.04 602.21 873.09 588.95 872.47 575.69 872.2 562.43 872.31 549.17 872.79 535.9 873.6 522.64 874.72 509.38 876.09 496.12 877.65 482.86 879.32 469.6 881.02 456.34 882.67 443.08 884.2 429.81 885.52 416.55 886.58 403.29 887.33 390.03 887.73 376.77 887.76 363.51 887.42 350.25 886.73 336.99 885.72 323.72 884.44 310.46 882.94 297.2 881.3 283.94 879.61 270.68 877.93 257.42 876.34 244.16 874.94 230.9 873.77 217.63 872.9 204.37 872.37 191.11 872.2 177.85 872.4 164.59 872.96 151.33 873.86 138.07 875.04 124.81 876.47 111.54 878.06 98.28 879.75 85.02 881.44 71.76 883.07 58.5 884.55 45.24 885.81 31.98 886.8 18.72 887.47 5.46 887.77 -7.8 887.71 -21.06 887.28 -34.32 886.51 -47.58 885.42 -60.84 884.08 -74.1 882.54 -87.36 880.88 -100.62 879.18 -113.89 877.52 -127.15 875.97 -140.41 874.62 -142.06 859.59 -143.75 844.57 -144.9 829.54 -145.1 814.52 -144.28 799.49 -142.73 784.47 -140.99 769.44 -139.66 754.41 -139.22 739.39 -139.82 724.36 -141.24 709.34 -142.99 694.31 -144.46 679.28 -145.14 664.26 -144.78 649.23 -143.52 634.21 -141.79 619.18 -140.2 604.16 -139.3 589.13 -139.41 574.1 -140.49 559.08 -142.16 544.05 -143.84 529.03 -144.94 514 -145.08 498.97 -144.21 483.95 -142.63 468.92 -140.9 453.9 -139.61 438.87 -139.23 423.85 -139.88 408.82 -141.33 393.79 -143.08 378.77 -144.52 363.74 -145.14 348.72 -144.73 333.69 -143.43 318.66 -141.69 303.64 -140.13 288.61 -139.28 273.59 -139.45 258.56 -140.57 243.54 -142.26 228.51 -143.92 213.48 -144.97 198.46 -145.06 183.43 -144.13 168.41 -142.53 153.38 -140.81 138.35 -139.57 123.33 -139.24 108.3 -139.94 93.28 -141.43 78.25 -143.18 63.23 -144.58 48.2 -145.15 33.17 -144.68 18.15 -143.34 3.12 -141.6 -11.89 -140.06 -26.92 -139.26 -41.95 -139.49 -56.97 -140.66 -72 -142.36 -87.02" fill="url(#uuunion-grad)"></path><path d="M-142.37 -87.02Q-140.67 -72 -139.5 -56.97 -139.27 -41.95 -140.07 -26.92 -141.61 -11.9 -143.35 3.12 -144.69 18.15 -145.16 33.17 -144.59 48.2 -143.19 63.22 -141.44 78.25 -139.95 93.28 -139.25 108.3 -139.58 123.33 -140.82 138.35 -142.54 153.38 -144.14 168.4 -145.07 183.43 -144.98 198.46 -143.93 213.48 -142.27 228.51 -140.58 243.53 -139.46 258.56 -139.29 273.59 -140.14 288.61 -141.7 303.64 -143.44 318.66 -144.74 333.69 -145.15 348.71 -144.53 363.74 -143.09 378.77 -141.34 393.79 -132.48 394.8 -123.61 395.93 -114.75 397.14 -105.88 398.41 -97.02 399.71 -88.15 401.02 -79.29 402.3 -70.42 403.54 -61.56 404.71 -52.69 405.77 -43.83 406.71 -34.96 407.51 -26.09 408.15 -17.23 408.62 -0.47 408.97 2.48 408.99 13.35 405.67 24.24 402.06 35.15 398.18 46.09 394.04 57.06 389.69 68.05 385.16 79.08 380.49 90.13 375.75 101.21 370.98 112.32 366.23 123.45 361.57 134.61 357.03 145.77 352.68 156.95 348.54 168.14 344.66 179.34 341.05 190.53 337.74 201.71 334.73 212.89 332.02 224.05 329.59 235.2 327.42 246.32 325.49 257.42 323.74 268.5 322.15 279.55 320.65 290.57 319.19 301.57 317.73 312.54 316.19 323.49 314.54 334.42 312.71 345.33 310.68 356.23 308.4 367.12 305.84 378.01 302.99 388.9 299.83 399.79 296.37 410.7 292.62 421.63 288.59 432.58 284.32 443.56 279.84 454.57 275.2 465.62 270.44 476.71 265.63 487.85 260.82 499.04 256.05 510.27 251.4 521.55 246.9 532.88 242.6 544.25 238.55 555.67 234.77 567.12 231.29 578.61 228.11 590.13 225.24 601.66 222.68 613.22 220.39 624.77 218.37 636.33 216.56 647.88 214.94 659.4 213.44 670.9 212.01 682.36 210.61 693.78 209.16 705.14 207.63 716.45 205.94 727.69 204.06 738.85 201.95 749.94 199.57 760.96 196.89 771.89 193.91 782.74 190.61 793.51 187 804.21 183.09 814.83 178.92 825.39 174.51 835.89 169.92 846.33 165.17 856.74 160.34 867.11 155.47 877.46 150.62 887.8 145.85 898.14 141.22 908.5 136.77 918.88 132.55 929.31 128.6 939.8 124.93 950.35 121.58 960.97 118.54 971.68 115.83 982.49 113.41 993.4 111.28 1004.42 109.39 1015.55 107.71 1026.8 106.19 1038.16 104.78 1049.64 103.42 1061.23 102.06 1072.92 100.62 1084.71 99.07 1096.6 97.34 1108.56 95.4 1120.59 93.19 1132.67 90.7 1144.79 87.89 1156.93 84.76 1169.07 81.31 1181.21 77.55 1193.31 73.49 1205.37 69.18 1217.37 64.64 1229.29 59.92 1241.11 55.09 1252.83 50.18 1264.43 45.27 1275.89 40.4 1287.22 35.64 1298.4 31.05 1309.43 26.66 1320.31 22.53 1331.04 18.68 1341.61 15.15 1352.05 11.94 1362.34 9.05 1372.51 6.49 1382.57 4.23 1392.53 2.24 1402.41 0.49 1412.23 -1.06 1422 -2.47 1415.09 -19.98 1411.43 -37.5 1412.74 -55.01 1418.4 -72.52 1425.76 -90.03 1431.34 -107.54 1432.53 -125.05 1428.76 -142.56 1416.38 -144.52 1404 -146.29 1391.62 -147.81 1379.24 -149.01 1366.86 -149.85 1354.48 -150.28 1342.1 -150.3 1329.72 -149.9 1317.34 -149.1 1304.96 -147.92 1292.58 -146.43 1280.2 -144.67 1267.82 -142.73 1255.44 -140.67 1243.06 -138.59 1230.67 -136.56 1218.29 -134.67 1205.91 -133 1193.53 -131.61 1181.15 -130.57 1168.77 -129.9 1156.39 -129.65 1144.01 -129.81 1131.63 -130.39 1119.25 -131.36 1106.87 -132.68 1094.49 -134.3 1082.11 -136.15 1069.73 -138.15 1057.35 -140.23 1044.97 -142.3 1032.59 -144.27 1020.21 -146.08 1007.83 -147.63 995.45 -148.88 983.06 -149.76 970.68 -150.25 958.3 -150.32 945.92 -149.97 933.54 -149.22 921.16 -148.09 908.78 -146.64 896.4 -144.91 884.02 -142.99 871.64 -140.94 859.26 -138.85 846.88 -136.81 834.5 -134.9 822.12 -133.2 809.74 -131.77 797.36 -130.68 784.98 -129.96 772.6 -129.66 760.22 -129.77 747.83 -130.3 735.45 -131.22 723.07 -132.49 710.69 -134.07 698.31 -135.9 685.93 -137.89 673.55 -139.96 661.17 -142.04 648.79 -144.03 636.41 -145.86 624.03 -147.45 611.65 -148.74 599.27 -149.67 586.89 -150.21 574.51 -150.34 562.13 -150.04 549.75 -149.34 537.37 -148.26 524.99 -146.84 512.61 -145.15 500.22 -143.24 487.84 -141.21 475.46 -139.12 463.08 -137.07 450.7 -135.14 438.32 -133.41 425.94 -131.94 413.56 -130.8 401.18 -130.03 388.8 -129.67 376.42 -129.73 364.04 -130.2 351.66 -131.08 339.28 -132.31 326.9 -133.86 314.52 -135.65 302.14 -137.62 289.76 -139.69 277.38 -141.77 265 -143.78 252.61 -145.63 240.23 -147.26 227.85 -148.59 215.47 -149.57 203.09 -150.16 190.71 -150.34 178.33 -150.1 165.95 -149.45 153.57 -148.42 141.19 -147.04 128.81 -145.38 116.43 -143.5 104.05 -141.47 91.67 -139.39 79.29 -137.33 66.91 -135.38 54.53 -133.62 42.15 -132.11 29.77 -130.93 17.38 -130.11 5 -129.7 -7.37 -129.7 -19.75 -130.12 -32.13 -130.94 -44.51 -132.13 -56.89 -133.64 -69.27 -135.41 -81.65 -137.36 -94.03 -139.42 -106.41 -141.51 -118.79 -143.53 -131.17 -145.41 -148.76 -140.09 -150.97 -117.76 -146.98 -102.4 -142.37 -87.02" fill="url(#uuunion-grad2)" filter="url(#uuunion-blur)"></path><path d="M1424.48 317.71Q1433.38 319.03 1442.29 320.37 1451.19 321.7 1460.1 323 1469 324.23 1477.91 325.37 1486.82 326.4 1495.72 327.29 1504.63 328.02 1513.53 328.59 1522.44 328.98 1531.34 329.17 1540.25 329.17 1549.15 328.98 1558.06 328.59 1566.97 328.02 1573.81 345.49 1576.14 362.95 1572.84 380.41 1565.48 397.87 1557.52 415.33 1552.69 432.8 1553.28 450.26 1559 467.72 1567.16 485.18 1573.93 502.64 1576.12 520.1 1572.7 537.57 1565.28 555.03 1557.35 572.49 1552.64 589.95 1553.36 607.41 1559.18 624.88 1567.35 642.34 1574.05 659.8 1576.1 677.26 1572.56 694.72 1565.08 712.18 1557.19 729.65 1552.59 747.11 1553.45 764.57 1559.36 782.03 1567.55 799.49 1574.16 816.96 1576.08 834.42 1572.42 851.88 1564.88 869.34 1557.03 886.8 1544.86 887.42 1532.7 887.75 1520.53 887.76 1508.37 887.46 1496.21 886.87 1484.04 886 1471.88 884.88 1459.71 883.58 1447.55 882.12 1435.39 880.59 1423.22 879.03 1411.06 877.51 1398.89 876.08 1386.73 874.82 1374.57 873.76 1362.4 872.95 1350.24 872.43 1338.07 872.2 1325.91 872.29 1313.75 872.69 1301.58 873.38 1289.42 874.33 1277.25 875.52 1265.09 876.88 1252.93 878.36 1240.76 879.91 1228.6 881.47 1216.43 882.97 1204.27 884.34 1192.11 885.54 1179.94 886.52 1167.78 887.24 1155.61 887.67 1143.45 887.79 1131.28 887.6 1119.12 887.11 1106.96 886.33 1094.79 885.29 1082.63 884.04 1070.46 882.64 1058.3 881.12 1046.14 879.56 1033.97 878.02 1021.81 876.56 1009.64 875.23 997.48 874.1 985.32 873.2 973.15 872.57 960.99 872.24 948.82 872.23 936.66 872.52 924.5 873.11 912.33 873.98 900.17 875.09 888 876.39 875.84 877.84 863.68 879.38 851.51 880.94 839.35 882.46 827.18 883.89 815.02 885.15 802.86 886.22 790.69 887.03 778.53 887.56 766.36 887.79 754.2 887.7 742.04 887.31 729.87 886.62 717.71 885.67 705.54 884.49 693.38 883.13 681.22 881.65 669.05 880.1 656.89 878.54 644.72 877.05 632.56 875.67 620.4 874.46 608.23 873.48 596.07 872.76 583.9 872.32 571.74 872.2 559.58 872.38 547.41 872.87 535.25 873.65 523.08 874.68 510.92 875.92 498.76 877.33 486.59 878.84 474.43 880.4 462.26 881.95 450.1 883.41 437.94 884.74 425.77 885.88 413.61 886.78 401.44 887.41 389.28 887.74 377.12 887.77 364.95 887.48 352.79 886.89 340.62 886.03 328.46 884.92 316.3 883.62 304.13 882.17 291.97 880.64 279.8 879.08 267.64 877.55 255.48 876.13 243.31 874.85 231.15 873.79 218.98 872.97 206.82 872.44 194.66 872.2 182.49 872.28 170.33 872.67 158.16 873.35 146 874.3 133.84 875.48 121.67 876.83 109.51 878.32 97.34 879.87 85.18 881.42 73.02 882.92 60.85 884.3 48.69 885.51 36.52 886.5 24.36 887.23 5.8 882.74 -1.27 867.84 -1.91 857.87 -2.41 847.89 -2.69 837.92 -2.69 827.94 -1.94 812.98 -0.94 808 11.97 801.59 24.87 794.86 37.73 787.82 50.51 780.5 63.22 772.94 75.84 765.2 88.37 757.35 100.83 749.44 113.23 741.55 125.59 733.74 137.92 726.09 150.27 718.64 162.63 711.46 175.04 704.58 187.49 698.03 200 691.82 212.56 685.96 225.17 680.42 237.8 675.18 250.44 670.21 263.07 665.43 275.67 660.8 288.21 656.25 300.68 651.71 313.08 647.09 325.4 642.35 337.64 637.4 349.82 632.21 361.95 626.71 374.07 620.89 386.21 614.71 398.38 608.18 410.64 601.3 423 594.11 435.49 586.63 448.12 578.93 460.89 571.05 473.81 563.07 486.84 555.06 499.97 547.1 513.15 539.25 526.35 531.58 539.51 524.15 552.58 517.02 565.52 510.22 578.29 503.78 590.86 497.7 603.22 491.97 615.35 486.59 627.26 481.51 639 476.69 650.59 472.06 662.09 467.56 673.56 463.11 685.07 458.65 696.69 454.09 708.47 449.37 720.49 444.41 732.77 439.17 745.34 433.61 758.22 427.68 771.39 421.38 784.83 414.7 798.48 407.68 808.43 405.59 818.39 403.32 828.37 400.91 838.35 398.38 848.35 395.76 858.35 393.09 868.37 390.41 878.39 387.74 888.41 385.13 898.45 382.62 908.49 380.22 918.53 377.98 928.58 375.91 938.62 374.04 948.67 372.38 958.72 370.95 968.77 369.75 978.82 368.78 988.87 368.03 998.91 367.48 1008.95 367.13 1018.98 366.94 1029 366.9 1039.01 366.97 1049.02 367.11 1059.02 367.3 1069 367.49 1078.97 367.66 1088.93 367.75 1098.88 367.75 1108.81 367.61 1118.72 367.31 1128.62 366.83 1138.49 366.15 1148.35 365.24 1158.19 364.11 1168.01 362.74 1177.81 361.15 1187.59 359.34 1197.34 357.32 1207.08 355.12 1216.79 352.76 1226.47 350.26 1236.13 347.65 1245.77 344.98 1255.38 342.28 1264.97 339.58 1274.54 336.93 1284.08 334.35 1293.59 331.88 1303.08 329.55 1312.55 327.39 1322 325.42 1331.42 323.67 1340.81 322.13 1350.19 320.83 1359.54 319.76 1368.88 318.92 1378.19 318.29 1387.48 317.87 1396.76 317.63 1406.01 317.54 1415.25 317.58 1424.48 317.71" fill="url(#uuunion-grad3)" filter="url(#uuunion-blur2)"></path></svg>